<?xml version="1.0" encoding="UTF-8"?>
<!-- Generator: visioncortex VTracer 0.6.4 -->
<svg version="1.1" xmlns="http://www.w3.org/2000/svg" width="120" height="120" viewBox="0 0 731 728">
<path d="M0 0 C0.75 -0.04 1.49 -0.07 2.26 -0.11 C3.9 -0.16 5.55 -0.2 7.19 -0.22 C12 -0.26 16.8 -0.25 21.61 -0.24 C23.8 -0.24 25.99 -0.24 28.18 -0.25 C34.17 -0.25 40.16 -0.24 46.15 -0.23 C52.62 -0.22 59.09 -0.23 65.56 -0.23 C76.76 -0.23 87.96 -0.22 99.16 -0.21 C110.9 -0.2 122.64 -0.19 134.39 -0.19 C135.12 -0.19 135.85 -0.19 136.6 -0.19 C140.31 -0.19 144.03 -0.19 147.74 -0.19 C174.02 -0.18 200.29 -0.17 226.57 -0.15 C252.09 -0.13 277.61 -0.12 303.13 -0.11 C304.31 -0.11 304.31 -0.11 305.51 -0.11 C313.42 -0.11 321.32 -0.1 329.23 -0.1 C345.33 -0.1 361.43 -0.09 377.54 -0.08 C378.65 -0.08 378.65 -0.08 379.78 -0.08 C429.19 -0.07 478.59 -0.03 528 0 C527.7 2.05 527.39 4.1 527.08 6.15 C526.91 7.29 526.74 8.44 526.56 9.61 C526.38 10.73 526.19 11.85 526 13 C525.78 14 525.56 15.01 525.33 16.04 C524.66 18.74 523.96 21.43 523.25 24.12 C522.15 28.41 521.06 32.7 520 37 C519.03 41.22 518.11 45.45 517.19 49.69 C516.15 54.46 515.09 59.24 514 64 C512.53 70.18 511.01 76.34 509.5 82.5 C506.75 93.67 506.75 93.67 504.11 104.86 C502.85 110.43 501.63 116.01 500.41 121.58 C498.65 129.63 496.78 137.66 494.92 145.69 C494.68 146.71 494.44 147.73 494.2 148.77 C493.89 150.11 493.89 150.11 493.57 151.47 C493.38 152.31 493.19 153.14 493 154 C492.66 155.67 492.33 157.33 492 159 C491.34 158.01 490.68 157.02 490 156 C489.51 154.84 489.01 153.68 488.51 152.49 C487.92 151.01 487.33 149.52 486.74 148.04 C486.26 146.83 486.26 146.83 485.77 145.59 C484.7 142.91 483.64 140.23 482.59 137.55 C481.85 135.69 481.11 133.84 480.37 131.98 C478.44 127.09 476.5 122.21 474.57 117.32 C472.59 112.33 470.61 107.34 468.63 102.36 C464.75 92.57 460.87 82.79 457 73 C399.69 72.91 342.38 72.84 285.07 72.8 C278.3 72.79 271.53 72.79 264.76 72.78 C264.09 72.78 263.42 72.78 262.72 72.78 C240.91 72.76 219.1 72.73 197.29 72.69 C174.23 72.66 151.17 72.63 128.11 72.62 C114.3 72.62 100.49 72.6 86.69 72.57 C77.21 72.55 67.74 72.54 58.27 72.55 C52.81 72.55 47.34 72.54 41.88 72.52 C36.87 72.5 31.86 72.5 26.85 72.52 C25.05 72.52 23.25 72.51 21.44 72.5 C18.97 72.48 16.5 72.48 14.03 72.51 C12.88 72.53 12.88 72.53 11.7 72.55 C10.95 72.58 10.2 72.61 9.43 72.64 C8.33 72.71 8.33 72.71 7.21 72.78 C6.12 72.89 6.12 72.89 5 73 C4.26 73.12 3.51 73.24 2.74 73.36 C1.64 73.58 1.64 73.58 0.51 73.81 C-0.21 73.97 -0.93 74.14 -1.68 74.31 C-3.62 74.79 -5.56 75.31 -7.5 75.82 C-8.65 76.21 -9.81 76.6 -11 77 C-11.62 77.26 -12.23 77.53 -12.87 77.8 C-13.77 78.22 -13.77 78.22 -14.69 78.65 C-15.74 79.18 -16.79 79.71 -17.88 80.25 C-18.91 80.85 -19.95 81.44 -21.01 82.05 C-22.49 83.02 -22.49 83.02 -24 84 C-24.98 84.72 -25.95 85.45 -26.96 86.2 C-27.86 86.91 -28.76 87.63 -29.69 88.38 C-30.48 89.04 -31.26 89.71 -32.07 90.4 C-32.71 90.93 -33.35 91.46 -34 92 C-34.99 92.5 -34.99 92.5 -36 93 C-36.33 92.34 -36.66 91.68 -37 91 C-37.06 90.17 -37.12 89.33 -37.18 88.47 C-37.24 84.96 -37.29 81.45 -37.31 77.94 C-37.32 75.37 -37.3 72.8 -37.28 70.23 C-37.24 68.98 -37.21 67.74 -37.18 66.45 C-37.12 65.31 -37.06 64.17 -37 63 C-36.9 62.1 -36.8 61.2 -36.7 60.27 C-36.57 59.5 -36.45 58.72 -36.32 57.93 C-36.17 57.21 -36.02 56.5 -35.87 55.77 C-35.63 54.77 -35.63 54.77 -35.38 53.75 C-35.2 53.09 -35.02 52.43 -34.83 51.75 C-34.64 51.11 -34.45 50.46 -34.25 49.8 C-33.63 47.92 -33.63 47.92 -33 46 C-32.79 45.35 -32.58 44.69 -32.37 44.02 C-31.93 42.68 -31.48 41.34 -31.03 40 C-30.79 39.34 -30.56 38.68 -30.31 38 C-30.07 37.35 -29.82 36.7 -29.57 36.03 C-29.3 35.38 -29.04 34.73 -28.77 34.06 C-28.36 33.07 -28.36 33.07 -27.93 32.07 C-27.62 31.38 -27.32 30.7 -27 30 C-26.28 28.49 -25.54 26.99 -24.79 25.5 C-23.65 23.3 -22.5 21.12 -21.34 18.93 C-20.62 17.62 -19.89 16.3 -19.16 15 C-18.78 14.34 -18.39 13.68 -18 13 C-16.66 10.81 -15.31 8.64 -13.94 6.47 C-13.63 5.98 -13.32 5.5 -13 5 C-14.61 6.26 -16.21 7.54 -17.81 8.81 C-19.36 10.09 -20.91 11.36 -22.44 12.66 C-22.96 13.1 -23.47 13.54 -24 14 C-24.93 14.84 -25.87 15.69 -26.83 16.55 C-27.73 17.42 -28.63 18.29 -29.56 19.19 C-30.47 20.12 -31.37 21.04 -32.3 22 C-32.75 22.49 -33.2 22.97 -33.66 23.47 C-34.32 24.23 -34.32 24.23 -35 25 C-35.44 25.53 -35.87 26.05 -36.33 26.6 C-36.76 27.14 -37.19 27.69 -37.63 28.25 C-38.06 28.81 -38.48 29.37 -38.92 29.95 C-39.77 31.11 -40.6 32.28 -41.43 33.45 C-41.83 34.05 -42.23 34.64 -42.64 35.26 C-43.04 35.87 -43.43 36.48 -43.83 37.1 C-44.22 37.73 -44.6 38.35 -45 39 C-45.38 39.65 -45.76 40.3 -46.15 40.98 C-46.51 41.64 -46.88 42.31 -47.26 42.99 C-47.98 44.34 -48.68 45.7 -49.38 47.06 C-50.03 48.41 -50.68 49.77 -51.32 51.13 C-51.61 51.78 -51.9 52.44 -52.2 53.11 C-52.6 54.05 -52.6 54.05 -53 55 C-53.41 56.1 -53.82 57.2 -54.24 58.34 C-54.74 59.9 -54.74 59.9 -55.25 61.5 C-55.54 62.54 -55.83 63.57 -56.13 64.64 C-56.56 66.3 -56.56 66.3 -57 68 C-57.18 68.65 -57.35 69.3 -57.53 69.97 C-58.44 73.33 -59.3 76.7 -60.17 80.08 C-60.31 80.72 -60.46 81.36 -60.61 82.03 C-60.74 82.68 -60.87 83.33 -61 84 C-61.11 84.64 -61.21 85.28 -61.32 85.94 C-61.41 86.62 -61.5 87.3 -61.59 88.01 C-61.67 88.76 -61.74 89.52 -61.82 90.3 C-61.88 91.19 -61.94 92.08 -62 93 C-62.1 95.43 -62.18 97.86 -62.24 100.29 C-62.31 104.55 -62.32 108.8 -62.32 113.06 C-62.3 115.28 -62.28 117.5 -62.24 119.73 C-62.2 121.15 -62.15 122.58 -62.1 124 C-62.07 124.66 -62.03 125.32 -62 126 C-61.9 127.15 -61.8 128.3 -61.7 129.49 C-61.57 130.53 -61.45 131.57 -61.32 132.64 C-61.1 134.11 -61.1 134.11 -60.87 135.61 C-60.54 137.48 -60.2 139.35 -59.84 141.22 C-59.65 142.1 -59.45 142.99 -59.26 143.91 C-58.85 145.61 -58.43 147.31 -58 149 C-57.57 150.62 -57.13 152.23 -56.68 153.84 C-56.45 154.61 -56.22 155.38 -55.98 156.17 C-55.74 156.92 -55.5 157.67 -55.25 158.44 C-55 159.16 -54.75 159.88 -54.49 160.63 C-54.23 161.33 -53.97 162.04 -53.7 162.77 C-53.43 163.47 -53.16 164.16 -52.88 164.88 C-52.44 165.93 -52.44 165.93 -52 167 C-51.36 168.47 -50.71 169.93 -50.05 171.39 C-49.38 172.8 -48.69 174.22 -48 175.62 C-47.32 176.95 -46.63 178.26 -45.93 179.57 C-45.3 180.7 -44.66 181.84 -44 183 C-43.5 183.81 -42.99 184.62 -42.47 185.46 C-42.01 186.11 -41.54 186.76 -41.06 187.44 C-40.58 188.02 -40.1 188.61 -39.6 189.21 C-39.07 189.8 -38.54 190.39 -38 191 C-37.37 191.72 -36.74 192.45 -36.09 193.19 C-35.38 193.95 -34.67 194.72 -33.94 195.5 C-33.18 196.25 -32.41 196.99 -31.63 197.76 C-30.76 198.5 -29.89 199.24 -29 200 C-27.94 200.74 -26.87 201.48 -25.78 202.24 C-24.65 202.96 -23.51 203.67 -22.38 204.38 C-21.33 205 -20.29 205.63 -19.21 206.27 C-18.15 206.84 -17.09 207.41 -16 208 C-14.94 208.51 -13.88 209.02 -12.79 209.54 C-12.2 209.78 -11.61 210.02 -11 210.28 C-10.01 210.63 -10.01 210.63 -9 211 C-7.85 211.36 -7.85 211.36 -6.68 211.72 C-4.83 212.24 -2.97 212.74 -1.12 213.24 C-0.09 213.49 0.94 213.74 2 214 C3.01 214.2 4.02 214.4 5.06 214.61 C8.36 215.19 11.66 215.74 14.97 216.27 C16.19 216.47 17.41 216.67 18.67 216.88 C21.94 217.42 25.21 217.95 28.47 218.48 C31.89 219.04 35.3 219.6 38.72 220.17 C40.09 220.39 41.45 220.62 42.82 220.84 C43.49 220.95 44.16 221.06 44.86 221.18 C46.88 221.51 48.9 221.84 50.92 222.18 C60.73 223.79 70.52 225.43 80.31 227.12 C81.65 227.36 82.99 227.59 84.33 227.82 C86.37 228.17 88.41 228.52 90.45 228.87 C100.09 230.53 109.73 232.17 119.38 233.81 C120.36 233.98 121.34 234.15 122.35 234.32 C139.52 237.24 156.69 240.16 173.86 243.07 C195.32 246.71 216.77 250.36 238.22 254.02 C247 255.51 255.78 257 264.56 258.5 C269.45 259.33 274.35 260.17 279.25 261 C281.21 261.33 283.17 261.67 285.12 262 C289.04 262.67 292.96 263.33 296.88 264 C297.84 264.16 298.81 264.33 299.81 264.5 C301.77 264.83 303.73 265.17 305.69 265.5 C310.57 266.33 315.45 267.16 320.32 267.99 C329.35 269.53 338.38 271.06 347.4 272.6 C350.54 273.14 353.67 273.67 356.8 274.2 C360.84 274.89 364.88 275.58 368.92 276.27 C377.94 277.81 386.95 279.32 395.98 280.77 C399.55 281.35 403.12 281.93 406.69 282.56 C407.45 282.71 408.21 282.85 409 283 C410.54 283.33 412.08 283.67 413.62 284.02 C415.04 284.36 416.46 284.71 417.88 285.06 C419.03 285.36 420.18 285.66 421.37 285.97 C422.57 286.31 423.76 286.65 425 287 C425.73 287.19 426.47 287.39 427.23 287.59 C428.43 287.92 428.43 287.92 429.66 288.26 C430.52 288.52 431.37 288.78 432.24 289.04 C433.15 289.36 434.06 289.67 435 290 C435.98 290.41 436.97 290.83 437.98 291.25 C440.09 292.21 442.19 293.19 444.28 294.19 C445.34 294.7 446.4 295.22 447.5 295.75 C448.56 296.25 449.63 296.75 450.72 297.27 C451.77 297.77 452.82 298.28 453.91 298.8 C455.44 299.57 455.44 299.57 457.01 300.36 C458 300.9 458.98 301.44 460 302 C460.93 302.6 461.86 303.19 462.82 303.81 C463.69 304.41 464.56 305.02 465.45 305.64 C466.98 306.75 468.49 307.87 470 309 C470.95 309.71 471.91 310.43 472.89 311.16 C474.61 312.55 476.31 313.95 478.01 315.36 C479.49 316.67 479.49 316.67 481 318 C482.17 319.08 483.33 320.17 484.49 321.27 C485.71 322.44 486.92 323.62 488.12 324.81 C489.32 326.02 490.52 327.24 491.7 328.46 C492.81 329.63 493.91 330.81 495 332 C495.45 332.52 495.9 333.04 496.37 333.58 C496.98 334.32 496.98 334.32 497.61 335.07 C498.73 336.52 498.73 336.52 499.88 338 C500.57 338.97 501.27 339.94 501.98 340.95 C502.65 341.95 503.31 342.96 504 344 C504.69 345.11 505.37 346.22 506.08 347.37 C506.77 348.53 507.45 349.7 508.12 350.88 C509.11 352.65 510.09 354.44 511.05 356.23 C511.98 357.96 512.93 359.68 513.88 361.4 C514.48 362.53 515.07 363.65 515.69 364.81 C516.54 366.54 516.54 366.54 517.4 368.3 C517.67 368.89 517.94 369.49 518.22 370.1 C518.48 370.73 518.73 371.36 519 372 C519.24 372.68 519.49 373.36 519.74 374.06 C519.97 374.77 520.2 375.47 520.44 376.2 C520.89 377.65 521.32 379.11 521.75 380.56 C522.15 382 522.55 383.43 522.94 384.87 C523.62 387.49 524.28 390.12 524.94 392.76 C525.44 394.89 525.94 397.03 526.42 399.17 C526.8 401.02 527.17 402.88 527.53 404.73 C527.68 405.81 527.84 406.89 528 408 C528.05 409.12 528.1 410.24 528.15 411.4 C528.17 414.72 528.19 418.04 528.19 421.36 C528.19 423.47 528.21 425.58 528.22 427.69 C528.23 429.76 528.23 431.84 528.21 433.91 C528.19 435.27 528.15 436.63 528.11 437.99 C528.06 438.98 528.06 438.98 528 440 C527.86 441.31 527.72 442.62 527.58 443.97 C527.26 446.32 526.91 448.67 526.55 451.01 C526.37 452 526.19 452.98 526 454 C525.8 454.93 525.6 455.86 525.39 456.82 C525.1 457.99 525.1 457.99 524.81 459.19 C524.42 460.51 524.42 460.51 524.02 461.86 C522.97 465.1 521.91 468.35 520.8 471.57 C520.22 473.2 519.63 474.83 519.03 476.45 C518.39 478.13 517.74 479.8 517.07 481.47 C516.54 482.72 516.54 482.72 516 484 C515.44 485.24 515.44 485.24 514.86 486.51 C514.07 488.16 513.26 489.81 512.45 491.45 C511.61 493.06 510.76 494.67 509.9 496.28 C509.26 497.44 509.26 497.44 508.6 498.62 C508.17 499.37 507.74 500.11 507.29 500.88 C506.65 501.93 506.65 501.93 506 503 C505.59 503.63 505.18 504.25 504.75 504.9 C504.35 505.48 503.94 506.06 503.52 506.66 C503.12 507.21 502.71 507.77 502.29 508.34 C501.89 508.86 501.48 509.39 501.06 509.94 C500.24 510.95 499.42 511.96 498.57 513.01 C496.8 515.08 495.01 517.14 493.21 519.18 C492.27 520.23 491.32 521.27 490.38 522.31 C488.59 524.22 486.8 526.11 485 528 C484.35 528.72 483.69 529.44 483.02 530.18 C482.41 530.82 481.81 531.46 481.19 532.12 C480.54 532.75 479.9 533.38 479.23 534.02 C478.5 534.68 477.76 535.33 477 536 C476.08 536.76 475.15 537.51 474.2 538.29 C473.42 538.89 473.42 538.89 472.62 539.51 C471.49 540.34 470.35 541.17 469.2 541.99 C468.58 542.41 467.97 542.84 467.33 543.27 C466.33 543.92 466.33 543.92 465.3 544.59 C464.54 545.06 463.78 545.52 463 546 C461.1 547.08 459.18 548.15 457.26 549.2 C453.3 551.31 449.32 553.39 445.32 555.43 C444.41 555.88 443.5 556.33 442.56 556.8 C441.29 557.39 441.29 557.39 440 558 C439.26 558.31 438.53 558.62 437.77 558.93 C437.1 559.19 436.43 559.44 435.73 559.71 C433.31 560.55 430.88 561.38 428.45 562.2 C427.35 562.55 426.25 562.89 425.12 563.25 C424.01 563.61 422.9 563.96 421.76 564.33 C420.85 564.55 419.94 564.77 419 565 C418.34 564.67 417.68 564.34 417 564 C417.42 563.62 417.84 563.24 418.27 562.84 C422.28 559.16 426.28 555.44 430.24 551.69 C431.58 550.4 432.91 549.09 434.24 547.78 C434.78 547.19 435.32 546.61 435.88 546 C436.63 545.1 436.63 545.1 437.39 544.18 C437.92 543.46 438.45 542.74 439 542 C440.15 540.31 441.3 538.62 442.43 536.92 C443.22 535.68 444.02 534.44 444.8 533.19 C445.87 531.47 446.94 529.73 448 528 C448.49 527.25 448.97 526.5 449.47 525.73 C450.07 524.75 450.07 524.75 450.69 523.75 C451.25 522.71 451.25 522.71 451.82 521.65 C452.21 520.78 452.6 519.9 453 519 C453.24 518.37 453.49 517.74 453.74 517.09 C454.28 515.62 454.81 514.15 455.33 512.67 C455.86 511.1 456.38 509.52 456.9 507.95 C457.39 506.38 457.88 504.81 458.35 503.25 C458.57 502.5 458.78 501.76 459 501 C459.27 499.99 459.27 499.99 459.54 498.96 C459.7 498.32 459.85 497.69 460.01 497.04 C460.51 494.8 460.99 492.56 461.46 490.31 C461.73 488.67 461.73 488.67 462 487 C462.19 485.62 462.36 484.23 462.52 482.84 C462.61 482.05 462.7 481.25 462.79 480.43 C462.86 479.63 462.93 478.83 463 478 C463.03 477.28 463.07 476.56 463.1 475.82 C463.13 474.38 463.15 472.93 463.16 471.49 C463.17 470.75 463.17 470 463.17 469.23 C463.17 468.43 463.17 467.63 463.18 466.8 C463.18 465.11 463.19 463.43 463.19 461.74 C463.19 459.2 463.21 456.66 463.22 454.12 C463.23 451.66 463.23 449.2 463.21 446.73 C463.19 445.19 463.15 443.65 463.1 442.11 C463.07 441.41 463.04 440.72 463 440 C462.88 438.83 462.76 437.67 462.63 436.47 C462.47 435.45 462.32 434.44 462.15 433.4 C461.88 432.01 461.88 432.01 461.6 430.6 C461.21 428.9 460.81 427.2 460.4 425.5 C460.19 424.7 459.99 423.91 459.77 423.09 C459.32 421.51 458.85 419.94 458.38 418.38 C457.99 417.11 457.99 417.11 457.6 415.81 C457.05 414.06 456.48 412.32 455.9 410.58 C455.46 409.3 455.46 409.3 455 408 C454.69 407.18 454.37 406.35 454.05 405.5 C453.41 403.89 452.75 402.29 452.08 400.69 C451.41 399.16 450.73 397.63 450.03 396.11 C449.7 395.39 449.36 394.68 449.01 393.94 C448.67 393.26 448.34 392.58 447.99 391.88 C447.66 391.26 447.34 390.64 447 390 C446.1 388.48 446.1 388.48 445.18 386.94 C444.32 385.67 444.32 385.67 443.44 384.38 C442.86 383.62 442.29 382.87 441.7 382.09 C441.14 381.4 440.58 380.71 440 380 C439.21 378.96 439.21 378.96 438.39 377.91 C437.85 377.24 437.31 376.57 436.75 375.88 C436.17 375.23 435.58 374.59 434.98 373.93 C434.33 373.3 433.67 372.66 433 372 C431.83 371 431.83 371 430.64 369.97 C429.77 369.3 428.9 368.63 428 367.94 C427.04 367.28 426.08 366.62 425.09 365.95 C423.05 364.66 421 363.38 418.94 362.12 C417.27 361.22 417.27 361.22 415.56 360.31 C414.63 359.88 414.63 359.88 413.67 359.43 C413 359.15 412.32 358.87 411.63 358.58 C410.9 358.31 410.17 358.04 409.41 357.76 C408.62 357.51 407.82 357.26 407 357 C406.12 356.78 405.25 356.57 404.35 356.34 C402.92 356.04 402.92 356.04 401.46 355.73 C399.31 355.33 397.16 354.94 395 354.56 C391.88 354.05 388.76 353.54 385.63 353.05 C379.87 352.15 374.13 351.18 368.39 350.2 C367.45 350.03 366.51 349.87 365.54 349.71 C363.59 349.37 361.64 349.04 359.69 348.7 C354.6 347.83 349.51 346.97 344.42 346.11 C333.42 344.24 322.42 342.37 311.42 340.5 C306.53 339.66 301.64 338.83 296.75 338 C294.79 337.67 292.83 337.33 290.88 337 C289.91 336.83 288.94 336.67 287.94 336.5 C285 336 282.06 335.5 279.12 335 C278.16 334.83 277.19 334.67 276.19 334.5 C274.23 334.17 272.27 333.83 270.31 333.5 C265.41 332.67 260.51 331.83 255.61 331 C246.86 329.51 238.1 328.02 229.34 326.53 C224.52 325.7 219.7 324.88 214.88 324.06 C213.92 323.9 212.96 323.74 211.97 323.57 C197.16 321.05 182.34 318.53 167.52 316.01 C150.72 313.16 133.92 310.31 117.12 307.44 C103.81 305.16 90.5 302.89 77.18 300.62 C74.26 300.13 71.34 299.63 68.41 299.13 C58.77 297.49 49.14 295.85 39.5 294.24 C34.74 293.44 29.98 292.64 25.22 291.83 C22.95 291.45 20.67 291.07 18.4 290.69 C11.26 289.5 4.12 288.3 -3 287 C-6.54 286.32 -10.06 285.6 -13.59 284.87 C-14.71 284.63 -14.71 284.63 -15.86 284.39 C-17.25 284.09 -18.64 283.79 -20.02 283.48 C-20.68 283.32 -21.33 283.16 -22 283 C-23.33 282.64 -24.66 282.28 -25.99 281.9 C-27.11 281.56 -28.22 281.22 -29.38 280.88 C-31.16 280.24 -31.16 280.24 -32.99 279.6 C-34.33 279.08 -35.67 278.54 -37 278 C-38.71 277.28 -40.41 276.55 -42.11 275.81 C-43.93 274.99 -45.75 274.15 -47.56 273.31 C-49.37 272.45 -51.17 271.57 -52.96 270.68 C-53.82 270.24 -54.68 269.79 -55.57 269.33 C-56.77 268.67 -56.77 268.67 -58 268 C-58.7 267.57 -59.4 267.15 -60.13 266.71 C-61.09 266.08 -61.09 266.08 -62.07 265.45 C-62.67 265.03 -63.27 264.62 -63.89 264.19 C-65.04 263.36 -66.17 262.53 -67.31 261.68 C-68.88 260.47 -70.44 259.24 -72 258 C-72.98 257.24 -73.97 256.47 -74.98 255.69 C-76.38 254.57 -76.38 254.57 -77.81 253.44 C-78.7 252.69 -79.58 251.95 -80.5 251.18 C-82.08 249.81 -83.65 248.42 -85.22 247.04 C-86.29 246.03 -86.29 246.03 -87.38 245 C-88.09 244.26 -88.81 243.52 -89.55 242.76 C-90.36 241.85 -91.17 240.94 -92 240 C-93.06 238.72 -94.12 237.44 -95.17 236.14 C-96.31 234.71 -97.44 233.26 -98.56 231.81 C-99.69 230.33 -100.81 228.83 -101.92 227.33 C-102.96 225.9 -103.98 224.45 -105 223 C-105.62 222.08 -105.62 222.08 -106.25 221.13 C-106.8 220.27 -106.8 220.27 -107.36 219.39 C-108.36 217.71 -108.36 217.71 -109.38 216 C-109.99 214.88 -110.6 213.76 -111.23 212.61 C-111.52 212.03 -111.81 211.45 -112.11 210.86 C-112.55 209.94 -112.55 209.94 -113 209 C-113.64 207.58 -114.28 206.16 -114.9 204.74 C-115.52 203.27 -116.14 201.79 -116.75 200.31 C-117.6 198.17 -118.44 196.02 -119.27 193.87 C-119.51 193.25 -119.75 192.63 -120 192 C-120.39 191.09 -120.78 190.19 -121.18 189.25 C-121.51 188.45 -121.85 187.64 -122.19 186.81 C-122.49 185.95 -122.78 185.08 -123.09 184.19 C-123.39 183.14 -123.69 182.09 -124 181 C-124.39 179.51 -124.76 178.02 -125.13 176.53 C-125.32 175.68 -125.5 174.84 -125.7 173.97 C-125.88 173.07 -126.06 172.17 -126.25 171.25 C-126.42 170.32 -126.59 169.4 -126.76 168.44 C-126.92 167.47 -127.07 166.49 -127.23 165.49 C-127.37 164.46 -127.51 163.42 -127.65 162.36 C-127.77 161.25 -127.88 160.14 -128 159 C-128.12 157.17 -128.12 157.17 -128.24 155.3 C-128.29 154.02 -128.34 152.74 -128.39 151.42 C-128.43 149.43 -128.48 147.44 -128.5 145.45 C-128.5 143.43 -128.49 141.42 -128.47 139.41 C-128.44 138.1 -128.41 136.79 -128.38 135.44 C-128.33 134.17 -128.28 132.9 -128.22 131.59 C-128.15 130.41 -128.08 129.22 -128 128 C-127.9 126.98 -127.8 125.96 -127.7 124.91 C-127.58 123.98 -127.46 123.05 -127.34 122.09 C-127.2 121.21 -127.06 120.33 -126.92 119.42 C-126.68 118.16 -126.68 118.16 -126.44 116.88 C-126.26 116.05 -126.09 115.23 -125.91 114.38 C-125.71 113.57 -125.52 112.76 -125.32 111.92 C-124.66 109.38 -123.96 106.85 -123.25 104.32 C-122.72 102.49 -122.18 100.66 -121.62 98.84 C-121.05 97.05 -120.45 95.26 -119.85 93.47 C-119.39 92.19 -119.39 92.19 -118.92 90.89 C-118.6 90.06 -118.29 89.23 -117.97 88.38 C-117.65 87.59 -117.33 86.81 -117 86 C-116.68 85.28 -116.36 84.56 -116.03 83.82 C-115.71 83.14 -115.38 82.47 -115.05 81.77 C-114.56 80.8 -114.56 80.8 -114.06 79.81 C-113.73 79.19 -113.4 78.58 -113.06 77.94 C-112.4 76.74 -111.72 75.55 -111.04 74.36 C-109.7 72.15 -108.35 69.96 -107 67.77 C-106.34 66.75 -105.68 65.73 -105 64.69 C-104.33 63.72 -103.66 62.75 -102.97 61.75 C-102.32 60.84 -101.67 59.93 -101 59 C-100.43 58.21 -99.87 57.41 -99.28 56.6 C-98.69 55.82 -98.11 55.05 -97.5 54.25 C-96.84 53.45 -96.18 52.65 -95.5 51.82 C-94.68 50.89 -93.85 49.96 -93 49 C-91.83 47.73 -90.65 46.47 -89.46 45.21 C-88.13 43.82 -86.79 42.44 -85.44 41.06 C-84.04 39.67 -82.63 38.28 -81.21 36.91 C-80.51 36.24 -79.81 35.58 -79.08 34.89 C-78.39 34.27 -77.71 33.64 -77 33 C-76.36 32.46 -75.72 31.91 -75.06 31.35 C-74.45 30.85 -73.83 30.36 -73.19 29.84 C-72.58 29.37 -71.97 28.9 -71.34 28.42 C-70.12 27.52 -68.89 26.63 -67.65 25.74 C-67.03 25.32 -66.42 24.9 -65.79 24.46 C-64.53 23.63 -63.27 22.81 -62 22 C-60.67 21.16 -59.34 20.33 -58 19.5 C-56.65 18.7 -55.3 17.91 -53.94 17.12 C-52.59 16.38 -51.25 15.65 -49.89 14.93 C-49.24 14.59 -48.58 14.26 -47.91 13.92 C-47.28 13.61 -46.65 13.31 -46 13 C-44.86 12.52 -43.72 12.04 -42.55 11.54 C-40.88 10.93 -40.88 10.93 -39.19 10.31 C-36.8 9.53 -34.4 8.76 -32 8 C-30.45 7.48 -28.91 6.96 -27.36 6.44 C-25.72 5.89 -24.08 5.35 -22.44 4.81 C-21.69 4.56 -20.95 4.31 -20.19 4.05 C-19.44 3.82 -18.7 3.58 -17.93 3.33 C-17.19 3.12 -16.44 2.91 -15.67 2.69 C-14.79 2.46 -13.91 2.23 -13 2 C-12.15 1.82 -11.31 1.63 -10.43 1.44 C-9.48 1.27 -8.53 1.1 -7.54 0.93 C-6.39 0.76 -5.23 0.59 -4.05 0.41 C-3.4 0.34 -2.76 0.26 -2.1 0.19 C-1.4 0.12 -0.71 0.06 0 0 Z " fill="#8080FB" transform="translate(165,79)"/>
<path d="M0 0 C0.65 0.77 0.65 0.77 1.31 1.56 C1.87 2.37 2.43 3.17 3 4 C3.49 5.06 3.98 6.11 4.48 7.2 C5.01 8.48 5.53 9.76 6.05 11.04 C6.34 11.73 6.62 12.43 6.92 13.15 C7.54 14.66 8.16 16.18 8.78 17.69 C10.44 21.75 12.11 25.79 13.79 29.84 C14.13 30.68 14.47 31.51 14.83 32.37 C19.14 42.79 23.61 53.15 28.08 63.5 C30.17 68.37 32.27 73.24 34.31 78.14 C35 79.82 35.68 81.49 36.36 83.18 C36.68 84.08 36.68 84.08 37 85 C37 85.66 37 86.32 37 87 C94 86.99 151.01 86.95 208.01 86.87 C214.75 86.86 221.48 86.86 228.22 86.85 C229.22 86.85 229.22 86.85 230.25 86.84 C251.94 86.82 273.63 86.81 295.33 86.8 C318.27 86.8 341.21 86.78 364.15 86.74 C377.88 86.72 391.61 86.71 405.34 86.72 C414.77 86.72 424.19 86.71 433.62 86.68 C439.05 86.67 444.48 86.66 449.92 86.67 C454.9 86.69 459.89 86.68 464.87 86.65 C466.66 86.64 468.46 86.64 470.25 86.66 C471.91 86.67 473.57 86.67 475.23 86.66 C476.81 86.64 478.4 86.61 479.98 86.57 C480.74 86.54 481.51 86.5 482.3 86.46 C483.07 86.4 483.83 86.34 484.62 86.28 C485.4 86.19 486.19 86.1 487 86 C488.27 85.77 488.27 85.77 489.56 85.53 C490.42 85.34 491.29 85.16 492.17 84.96 C493.03 84.75 493.88 84.54 494.76 84.33 C496.38 83.9 497.99 83.47 499.61 83.04 C500.34 82.83 501.08 82.61 501.83 82.39 C502.54 82.17 503.24 81.95 503.96 81.72 C504.97 81.37 504.97 81.37 506 81 C506.66 80.72 507.32 80.44 508 80.16 C508.63 79.87 509.25 79.58 509.89 79.29 C510.93 78.76 511.98 78.23 513.06 77.69 C514.07 77.1 515.08 76.51 516.12 75.91 C517.07 75.28 518.02 74.65 519 74 C520.46 72.92 520.46 72.92 521.95 71.81 C523.3 70.73 523.3 70.73 524.69 69.62 C525.48 68.96 526.26 68.29 527.07 67.6 C528.03 66.81 528.03 66.81 529 66 C529.66 65.67 530.32 65.34 531 65 C531.32 65.98 531.65 66.96 531.98 67.98 C532.25 68.94 532.25 68.94 532.53 69.92 C532.69 70.61 532.84 71.29 533 72 C533.11 72.99 533.11 72.99 533.21 73.99 C533.24 74.66 533.27 75.33 533.3 76.02 C533.31 76.73 533.32 77.43 533.33 78.15 C533.32 78.89 533.32 79.62 533.31 80.38 C533.31 81.15 533.31 81.93 533.3 82.73 C533.29 83.53 533.27 84.33 533.26 85.15 C533.23 85.96 533.19 86.76 533.16 87.59 C533.11 88.38 533.05 89.18 533 90 C532.92 90.76 532.83 91.53 532.75 92.31 C532.64 93.06 532.54 93.8 532.43 94.57 C532.19 96.03 531.95 97.48 531.69 98.94 C531.32 100.87 531.32 100.87 530.95 102.84 C530.64 104.23 530.33 105.62 530 107 C529.56 108.79 529.11 110.58 528.65 112.36 C528.39 113.3 528.13 114.23 527.86 115.2 C527.58 116.12 527.29 117.05 527 118 C526.53 119.29 526.53 119.29 526.06 120.6 C525.56 121.86 525.56 121.86 525.05 123.14 C524.34 124.85 523.61 126.55 522.88 128.25 C522.49 129.15 522.1 130.05 521.7 130.98 C520.89 132.8 520.07 134.61 519.24 136.42 C518.63 137.7 518.63 137.7 518 139 C517.59 139.78 517.19 140.56 516.77 141.37 C516.17 142.47 516.17 142.47 515.55 143.59 C514.77 144.94 513.99 146.28 513.19 147.62 C512.83 148.23 512.47 148.84 512.1 149.47 C511.75 150.03 511.4 150.59 511.04 151.16 C510.37 152.1 509.69 153.04 509 154 C508.4 154.61 507.8 155.21 507.18 155.84 C506.46 156.22 505.74 156.6 505 157 C503.99 157.19 502.98 157.37 501.94 157.57 C500.64 157.71 499.34 157.85 498 158 C496.97 158.04 496.97 158.04 495.92 158.09 C494.4 158.11 492.88 158.13 491.36 158.13 C490.53 158.13 489.69 158.13 488.83 158.12 C487.92 158.12 487.02 158.13 486.08 158.13 C483.04 158.13 480 158.12 476.96 158.12 C474.76 158.12 472.56 158.12 470.36 158.12 C464.31 158.13 458.26 158.12 452.21 158.12 C446.36 158.11 440.5 158.11 434.65 158.11 C422.68 158.12 410.71 158.11 398.74 158.11 C386.88 158.1 375.03 158.1 363.18 158.09 C362.07 158.09 362.07 158.09 360.94 158.09 C357.2 158.09 353.46 158.09 349.71 158.09 C323.2 158.09 296.69 158.08 270.18 158.08 C244.42 158.07 218.67 158.06 192.91 158.05 C191.72 158.05 191.72 158.05 190.5 158.05 C182.53 158.05 174.56 158.05 166.59 158.05 C150.34 158.05 134.1 158.05 117.86 158.04 C117.11 158.04 116.37 158.04 115.6 158.04 C65.73 158.03 15.87 158.02 -34 158 C-33.68 156.09 -33.37 154.17 -33.05 152.26 C-32.88 151.2 -32.7 150.13 -32.52 149.03 C-32.35 148.03 -32.18 147.03 -32 146 C-31.73 144.6 -31.46 143.21 -31.17 141.81 C-30.89 140.55 -30.62 139.3 -30.34 138 C-30.11 136.94 -30.11 136.94 -29.87 135.86 C-29.38 133.57 -28.88 131.29 -28.38 129 C-28.02 127.37 -27.66 125.73 -27.31 124.1 C-24.74 112.31 -22.13 100.54 -19.5 88.77 C-16.79 76.59 -14.13 64.41 -11.51 52.21 C-7.76 34.79 -3.89 17.39 0 0 Z " fill="#8080FA" transform="translate(71,489)"/>
<path d="M0 0 C0.66 0.99 1.32 1.98 2 3 C2.3 3.83 2.3 3.83 2.61 4.68 C2.74 5.44 2.87 6.21 3 7 C3.1 8.85 3.1 8.85 3.2 10.73 C3.24 13.02 3.25 15.3 3.25 17.59 C3.24 18.4 3.23 19.21 3.22 20.05 C3.18 21.28 3.18 21.28 3.15 22.54 C3.1 23.35 3.05 24.16 3 25 C2.92 25.77 2.83 26.54 2.75 27.33 C2.65 28.07 2.54 28.81 2.43 29.58 C2.2 31.03 1.95 32.49 1.69 33.94 C1.44 35.23 1.2 36.51 0.95 37.84 C0.64 39.23 0.33 40.62 0 42 C-0.43 43.79 -0.88 45.57 -1.34 47.36 C-1.6 48.29 -1.86 49.22 -2.13 50.19 C-2.42 51.12 -2.7 52.04 -3 53 C-3.32 53.87 -3.63 54.74 -3.96 55.64 C-4.29 56.49 -4.63 57.34 -4.98 58.21 C-5.71 59.94 -6.44 61.66 -7.19 63.38 C-7.58 64.28 -7.97 65.18 -8.37 66.11 C-9.17 67.92 -9.97 69.71 -10.79 71.5 C-11.19 72.33 -11.59 73.15 -12 74 C-12.38 74.73 -12.77 75.46 -13.17 76.21 C-13.54 76.87 -13.91 77.53 -14.3 78.21 C-14.66 78.82 -15.02 79.43 -15.39 80.05 C-16.37 81.64 -17.37 83.22 -18.37 84.8 C-18.91 85.52 -19.45 86.25 -20 87 C-20.99 87.5 -20.99 87.5 -22 88 C-21.86 87.11 -21.71 86.22 -21.56 85.31 C-21.27 83.31 -20.98 81.31 -20.72 79.3 C-20.54 77.73 -20.37 76.16 -20.21 74.59 C-20.14 73.73 -20.07 72.88 -20 72 C-19.95 71.09 -19.89 70.18 -19.84 69.24 C-19.76 67.32 -19.7 65.39 -19.65 63.46 C-19.63 61.48 -19.63 59.5 -19.63 57.52 C-19.65 56.54 -19.67 55.57 -19.69 54.57 C-19.73 53.62 -19.76 52.68 -19.8 51.7 C-19.87 50.81 -19.93 49.92 -20 49 C-20.15 47.82 -20.15 47.82 -20.3 46.62 C-20.43 45.9 -20.56 45.17 -20.69 44.43 C-20.83 43.74 -20.98 43.06 -21.13 42.35 C-21.29 41.7 -21.46 41.05 -21.62 40.38 C-21.98 39.13 -22.34 37.89 -22.71 36.62 C-23.14 35.42 -23.56 34.23 -24 33 C-24.26 32.36 -24.51 31.72 -24.78 31.07 C-25.19 30.11 -25.19 30.11 -25.6 29.13 C-26.15 27.93 -26.69 26.74 -27.25 25.5 C-28.03 23.91 -28.03 23.91 -28.83 22.28 C-29.21 21.53 -29.6 20.78 -30 20 C-29.66 19.58 -29.32 19.16 -28.97 18.73 C-28.32 18.16 -27.67 17.59 -27 17 C-25.86 16.42 -24.73 15.84 -23.56 15.24 C-22.19 14.59 -20.81 13.95 -19.44 13.31 C-17.99 12.62 -16.55 11.92 -15.12 11.2 C-14.42 10.84 -13.71 10.48 -12.99 10.11 C-12.33 9.74 -11.68 9.38 -11 9 C-9.93 8.25 -8.86 7.5 -7.76 6.73 C-6.87 6.02 -5.98 5.3 -5.06 4.56 C-4.29 3.9 -3.52 3.25 -2.72 2.57 C-2.15 2.05 -1.59 1.53 -1 1 C-0.67 0.67 -0.34 0.34 0 0 Z " fill="#6161BB" transform="translate(601,554)"/>
<path d="M0 0 C0.33 0.99 0.66 1.98 1 3 C0.82 3.77 0.63 4.54 0.44 5.33 C0.01 6.77 0.01 6.77 -0.44 8.25 C-0.72 9.4 -1 10.55 -1.29 11.73 C-1.48 12.73 -1.48 12.73 -1.68 13.74 C-1.84 14.86 -1.84 14.86 -2 16 C-2.1 17.31 -2.1 17.31 -2.19 18.65 C-2.23 19.6 -2.27 20.54 -2.31 21.52 C-2.35 23.51 -2.37 25.51 -2.38 27.5 C-2.36 29.51 -2.33 31.52 -2.29 33.52 C-2.25 34.47 -2.21 35.42 -2.17 36.39 C-2.09 37.68 -2.09 37.68 -2 39 C-1.83 40.29 -1.67 41.58 -1.5 42.91 C-1.16 44.5 -1.16 44.5 -0.81 46.12 C-0.54 47.1 -0.27 48.07 0.01 49.07 C0.74 51.23 1.49 53.38 2.24 55.53 C2.68 56.69 3.11 57.86 3.56 59.06 C3.98 60.11 4.39 61.15 4.82 62.22 C5.21 63.14 5.6 64.06 6 65 C6.38 65.78 6.76 66.56 7.15 67.37 C7.43 67.91 7.71 68.45 8 69 C7.07 69.4 6.14 69.8 5.18 70.21 C3.2 71.09 1.23 71.97 -0.73 72.87 C-2.14 73.54 -3.54 74.21 -4.93 74.9 C-5.61 75.26 -6.3 75.63 -7 76 C-7.95 76.58 -7.95 76.58 -8.92 77.17 C-9.53 77.56 -10.13 77.96 -10.75 78.36 C-11.9 79.15 -13.05 79.95 -14.19 80.75 C-16.14 82.15 -18.07 83.57 -20 85 C-21.34 86 -22.67 87 -24 88 C-24.33 87.34 -24.66 86.68 -25 86 C-25.06 85.17 -25.12 84.33 -25.18 83.47 C-25.24 79.96 -25.29 76.45 -25.31 72.94 C-25.32 70.37 -25.3 67.8 -25.28 65.23 C-25.24 63.98 -25.21 62.74 -25.18 61.45 C-25.09 59.74 -25.09 59.74 -25 58 C-24.9 57.1 -24.8 56.2 -24.7 55.27 C-24.51 54.11 -24.51 54.11 -24.32 52.93 C-24.17 52.21 -24.02 51.5 -23.87 50.77 C-23.71 50.1 -23.54 49.44 -23.38 48.75 C-23.2 48.09 -23.02 47.43 -22.83 46.75 C-22.64 46.11 -22.45 45.46 -22.25 44.8 C-21.84 43.54 -21.43 42.29 -21 41 C-20.79 40.35 -20.58 39.69 -20.37 39.02 C-19.93 37.68 -19.48 36.34 -19.03 35 C-18.79 34.34 -18.56 33.68 -18.31 33 C-18.07 32.35 -17.82 31.7 -17.56 31.03 C-17.3 30.38 -17.04 29.73 -16.77 29.06 C-16.49 28.4 -16.21 27.75 -15.92 27.07 C-15.62 26.38 -15.31 25.7 -15 25 C-14.29 23.49 -13.56 21.99 -12.82 20.5 C-12.06 19 -11.28 17.5 -10.5 16 C-9.74 14.58 -8.97 13.16 -8.19 11.75 C-7.82 11.11 -7.45 10.46 -7.07 9.79 C-6.72 9.2 -6.36 8.61 -6 8 C-5.05 6.59 -5.05 6.59 -4.09 5.15 C-3.54 4.42 -3 3.69 -2.44 2.94 C-1.63 1.97 -0.83 1 0 0 Z " fill="#6161BB" transform="translate(153,84)"/>
</svg>
